<?xml version="1.0" standalone="no"?>
<!DOCTYPE svg PUBLIC "-//W3C//DTD SVG 20010904//EN"
 "http://www.w3.org/TR/2001/REC-SVG-20010904/DTD/svg10.dtd">
<svg version="1.0" xmlns="http://www.w3.org/2000/svg"
 width="260.000000pt" height="260.000000pt" viewBox="0 0 260.000000 260.000000"
 preserveAspectRatio="xMidYMid meet">
<metadata>
Created by potrace 1.14, written by Peter Selinger 2001-2017
</metadata>
<g transform="translate(0.000000,260.000000) scale(0.100000,-0.100000)"
fill="#000000" stroke="none">
<path d="M423 1974 c-110 -22 -202 -95 -254 -202 -32 -64 -34 -214 -5 -282 41
-93 133 -178 228 -209 37 -12 142 -16 188 -6 48 10 127 56 169 97 91 91 127
224 93 343 -52 188 -230 298 -419 259z"/>
<path d="M1243 1979 c-24 -4 -63 -17 -89 -28 -178 -79 -259 -297 -177 -473
128 -272 500 -282 644 -16 32 60 34 68 34 163 -1 90 -4 106 -28 153 -56 108
-154 183 -258 198 -77 11 -83 11 -126 3z"/>
<path d="M2035 1975 c-162 -36 -275 -170 -281 -332 -6 -152 65 -272 203 -341
36 -19 63 -26 137 -36 26 -4 116 11 144 24 12 5 33 15 46 21 61 28 137 121
165 199 33 92 18 222 -36 305 -82 128 -235 193 -378 160z"/>
<path d="M973 1213 c-46 -67 -82 -199 -63 -231 5 -10 95 -102 200 -206 l190
-190 26 25 c15 13 105 102 200 198 153 152 174 177 174 205 0 67 -56 208 -88
221 -6 2 -28 -7 -48 -20 -78 -53 -140 -69 -264 -69 -123 0 -172 13 -260 69
-22 14 -42 25 -44 25 -3 0 -13 -12 -23 -27z"/>
</g>
</svg>
