<?xml version="1.0" standalone="no"?>
<!DOCTYPE svg PUBLIC "-//W3C//DTD SVG 20010904//EN"
 "http://www.w3.org/TR/2001/REC-SVG-20010904/DTD/svg10.dtd">
<svg version="1.0" xmlns="http://www.w3.org/2000/svg"
 width="700.000000pt" height="700.000000pt" viewBox="0 0 700.000000 700.000000"
 preserveAspectRatio="xMidYMid meet">
<metadata>
Created by potrace 1.14, written by Peter Selinger 2001-2017
</metadata>
<g transform="translate(0.000000,700.000000) scale(0.100000,-0.100000)"
fill="#000000" stroke="none">
<path d="M1260 5338 c-232 -20 -422 -105 -590 -265 -192 -181 -295 -418 -297
-683 -2 -173 25 -295 99 -445 70 -141 189 -280 313 -365 91 -63 252 -132 360
-155 66 -14 275 -17 342 -5 37 7 75 14 83 15 101 19 285 113 387 198 179 148
310 390 339 625 42 342 -109 693 -388 899 -60 44 -182 107 -253 131 -54 18
-73 23 -140 38 -11 3 -49 7 -85 10 -36 3 -69 6 -75 8 -5 1 -48 -1 -95 -6z"/>
<path d="M3498 5345 c-1 -1 -37 -5 -78 -8 -371 -28 -707 -293 -829 -654 -48
-142 -63 -342 -36 -478 40 -204 130 -372 275 -516 184 -183 407 -275 669 -277
228 -1 422 62 596 196 197 151 341 398 372 636 24 185 -9 386 -91 556 -89 184
-246 344 -426 435 -61 31 -168 71 -215 81 -11 2 -31 6 -45 9 -14 4 -56 8 -95
11 -38 3 -75 7 -82 9 -6 2 -13 2 -15 0z"/>
<path d="M5667 5344 c-1 -1 -33 -4 -72 -7 -229 -19 -435 -115 -601 -281 -210
-211 -310 -501 -274 -798 11 -92 57 -252 86 -295 8 -12 14 -27 14 -33 0 -17
93 -150 149 -212 107 -119 277 -223 447 -274 162 -48 437 -41 579 16 100 41
138 60 211 107 347 225 513 652 408 1055 -30 116 -101 259 -172 348 -134 166
-318 287 -512 338 -75 20 -253 45 -263 36z"/>
<path d="M2635 3286 c-25 -36 -64 -102 -86 -148 -22 -46 -44 -90 -48 -99 -26
-48 -66 -262 -66 -352 0 -36 18 -55 525 -563 289 -289 532 -530 541 -534 12
-7 135 111 549 525 l533 533 -6 94 c-12 199 -97 420 -224 582 l-22 28 -33 -23
c-18 -13 -35 -26 -38 -29 -9 -10 -89 -60 -96 -60 -4 0 -15 -6 -23 -14 -27 -23
-206 -94 -293 -117 -46 -11 -120 -27 -165 -33 -84 -13 -290 -14 -353 -1 -19 3
-46 8 -60 10 -134 18 -334 99 -480 194 -47 31 -90 59 -97 64 -8 5 -28 -15 -58
-57z"/>
</g>
</svg>
